# Blender v2.78 (sub 0) OBJ File: 'FrictionBoost.blend'
# www.blender.org
mtllib FrictionBoost.mtl
o Cube
v 0.178607 -0.631801 -0.309069
v 0.178607 -0.631801 0.309069
v -0.178607 -0.631801 0.309069
v -0.178607 -0.631801 -0.309069
v 0.178607 0.631801 -0.309069
v 0.178607 0.631801 0.309069
v -0.178607 0.631801 0.309069
v -0.178607 0.631801 -0.309069
v 0.376795 0.179357 0.000000
v -0.376795 0.179357 -0.000000
v -0.376795 -0.179357 -0.000000
v 0.376795 -0.179357 0.000000
v 0.178607 0.000000 -0.631801
v -0.178607 0.000000 -0.631801
v -0.178607 0.000000 0.631801
v 0.178607 0.000000 0.631801
vn 0.9246 -0.1733 0.3392
vn -0.0000 -0.4549 0.8905
vn -0.9246 0.1733 -0.3392
vn 0.0000 -0.4549 -0.8905
vn 0.0000 0.4549 -0.8905
vn -0.0000 0.4549 0.8905
vn -0.9246 0.1733 0.3392
vn -0.9246 -0.1733 -0.3392
vn 0.9246 0.1733 -0.3392
vn -0.9542 -0.0000 0.2993
vn 0.9542 -0.0000 0.2993
vn -0.9246 -0.1733 0.3392
vn -0.9542 -0.0000 -0.2993
vn -0.0000 -0.5641 0.8257
vn -0.0000 0.5641 0.8257
vn 0.0000 -0.5641 -0.8257
usemtl Material
s off
f 2//1 12//1 16//1
f 16//2 15//2 3//2 2//2
f 10//3 8//3 14//3
f 14//4 13//4 1//4 4//4
f 14//5 8//5 5//5 13//5
f 15//6 16//6 6//6 7//6
f 1//7 12//7 13//7
f 6//8 9//8 16//8
f 5//9 9//9 13//9
f 13//10 12//10 9//10
f 16//11 12//11 9//11
f 7//7 10//7 15//7
f 4//8 11//8 14//8
f 11//12 3//12 15//12
f 15//10 10//10 11//10
f 14//13 11//13 10//13
f 9//14 6//14 7//14 10//14
f 10//15 9//15 5//15 8//15
f 11//14 4//14 1//14 12//14
f 2//16 3//16 11//16 12//16
