# Blender v2.78 (sub 0) OBJ File: 'GravityBoost.blend'
# www.blender.org
mtllib GravityBoost.mtl
o Cube
v 0.147550 -0.147550 -0.147550
v 0.493794 -0.493794 0.493794
v -0.070495 -0.070495 0.070495
v -0.045496 -0.045496 -0.045496
v 0.070495 0.070495 -0.070495
v 0.045496 0.045496 0.045496
v -0.147550 0.147550 0.147550
v -0.493794 0.493794 -0.493794
vn -0.5277 -0.8333 -0.1650
vn 0.5277 0.8333 0.1650
vn 0.8141 0.5649 -0.1345
vn -0.2824 0.4634 0.8399
vn -0.9367 -0.2413 -0.2539
vn -0.3808 0.1856 -0.9059
vn 0.3808 -0.1856 0.9059
vn 0.9367 0.2413 0.2539
vn 0.4341 0.8568 0.2782
vn -0.8141 -0.5649 0.1345
vn 0.2824 -0.4634 -0.8399
vn -0.4341 -0.8568 -0.2782
usemtl Material
s off
f 2//1 4//1 1//1
f 7//2 6//2 8//2
f 2//3 1//3 6//3
f 3//4 2//4 6//4
f 4//5 3//5 7//5
f 4//6 5//6 1//6
f 7//7 3//7 6//7
f 5//8 6//8 1//8
f 6//9 5//9 8//9
f 8//10 4//10 7//10
f 8//11 5//11 4//11
f 3//12 4//12 2//12
