# Blender v2.78 (sub 0) OBJ File: 'Stage1.blend'
# www.blender.org
mtllib Stage1.mtl
o TrackMesh
v -5.518137 0.642917 -3.065711
v 15.605431 0.642917 -8.800934
v -5.518137 0.642917 -24.189280
v 15.605431 0.642917 -18.454054
v 27.506880 0.642917 -8.800934
v 27.506880 0.642917 -18.454054
v 34.626228 0.642917 -3.065711
v 34.626228 0.642917 -24.189280
v -5.518137 2.468709 -3.065711
v 15.605431 4.249601 -8.800934
v -5.518137 2.468709 -24.189280
v 15.605431 4.249601 -18.454054
v 27.506880 4.249601 -8.800934
v 27.506880 4.249601 -18.454054
v 34.626228 2.468709 -3.065711
v 34.626228 2.468709 -24.189280
v -5.518137 2.468709 -13.578548
v -5.518137 0.642917 -13.627497
v -13.124746 0.642917 -27.931425
v -13.124746 2.468709 -27.931425
v -13.124746 2.468709 -17.320692
v -13.124746 0.642917 -17.369640
v -5.518137 0.642917 -3.065711
v -5.518137 2.468709 -3.065711
v -5.518137 2.468709 -13.578548
v -5.518137 0.642917 -13.627497
v -16.191120 7.039052 1.025992
v -16.191120 8.864843 1.025992
v -16.191120 8.864843 -9.486845
v -16.191120 7.039052 -9.535793
v -17.312994 7.039052 1.713338
v -17.312994 8.864843 1.713338
v -22.278147 8.864843 -4.916462
v -22.278147 7.039052 -4.965412
v -24.591921 7.028764 0.675526
v -18.341570 7.028764 2.480820
v -24.591921 8.854555 0.724474
v -18.341570 8.854555 2.480820
v -23.723631 7.013055 4.869031
v -18.675457 7.013055 3.652698
v -23.723631 8.838846 4.917980
v -18.675457 8.838846 3.652698
v -21.757441 6.905825 12.868397
v -16.709267 6.905825 11.652063
v -21.757441 8.731617 12.917345
v -16.709267 8.731617 11.652063
v -21.131668 6.871697 15.414328
v -16.741276 6.871697 12.562472
v -21.131668 8.697489 15.463278
v -16.741276 8.697489 12.562472
v -19.352318 6.863765 16.894119
v -16.353628 6.863765 13.154175
v -19.352318 8.689557 16.943068
v -16.353628 8.689557 13.154175
v -16.050762 4.871593 18.498642
v -14.339382 4.871593 14.758698
v -16.050762 6.697385 18.547590
v -14.339382 6.697385 14.758698
v -12.714529 3.574757 19.143064
v -12.997205 3.574757 15.403120
v -12.714529 5.400548 19.192013
v -12.997205 5.400548 15.403120
v -4.544403 2.727105 20.280937
v -5.092058 2.727105 13.035189
v -4.544403 6.264382 20.375771
v -5.092058 6.264382 13.035189
v -19.385408 -0.429096 -27.931425
v -19.385408 1.396696 -27.931425
v -19.385408 1.396696 -17.320692
v -19.385408 -0.429096 -17.369640
v -25.343473 -0.429096 -24.824490
v -25.343473 1.396696 -24.824490
v -21.288513 1.396696 -17.320692
v -21.288513 -0.429096 -17.369640
v -29.204763 -0.438125 -21.480522
v -29.204763 1.387667 -21.480522
v -22.530830 1.387667 -16.647163
v -22.530830 -0.438125 -16.696114
v -30.347549 -0.459385 -13.854441
v -30.347549 1.366407 -13.854441
v -23.673616 1.366407 -15.061171
v -23.673616 -0.459385 -15.110117
v -30.347549 -2.296347 1.624438
v -30.347549 -0.470555 1.624438
v -23.673616 -0.470555 0.417708
v -23.673616 -2.296347 0.368761
v -30.347549 -2.296347 6.407396
v -30.347549 -0.470555 6.407396
v -23.673616 -0.470555 5.200665
v -23.673616 -2.296347 5.151718
v -28.782217 -2.410084 14.892504
v -28.782217 -0.584293 14.892504
v -22.108284 -0.584293 13.685772
v -22.108284 -2.410084 13.636826
v -26.290480 -2.435785 19.592463
v -26.290480 -0.609994 19.592463
v -21.754570 -0.609994 15.603125
v -21.754570 -2.435785 15.554178
v -21.687857 -2.505506 24.793779
v -21.687857 -0.679714 24.793779
v -17.151945 -0.679714 20.804441
v -17.151945 -2.505506 20.755495
v -17.929470 -2.524487 28.234459
v -17.929470 -0.698696 28.234459
v -15.898870 -0.698696 22.220512
v -15.898870 -2.524487 22.171564
v -12.429151 -1.812695 30.084108
v -12.429151 0.013096 30.084108
v -10.398552 0.013096 24.070158
v -10.398552 -1.812695 24.021210
v -6.249758 -1.819512 30.592577
v -6.249758 0.006280 30.592577
v -8.886511 0.006280 24.578627
v -8.886511 -1.819512 24.529678
v -0.668677 -1.786844 28.155527
v -0.668677 0.038948 28.155527
v -3.305430 0.038948 22.141577
v -3.305430 -1.786844 22.092628
v -0.201549 -1.784110 27.951548
v -0.201549 0.041682 27.951548
v -1.049817 0.041682 21.937599
v -1.049817 -1.784110 21.888651
v 2.823281 -1.120402 27.526623
v 2.823281 0.705390 27.526623
v 1.975012 0.705390 21.512674
v 1.975012 -1.120402 21.463728
v -0.236308 -0.405677 20.143122
v -0.783963 -0.405677 12.897373
v -0.236308 3.131600 20.237955
v -0.783963 3.131600 12.897373
v 1.521030 -0.293113 19.784441
v 1.007678 -0.293113 12.992527
v 1.521030 3.022609 19.873335
v 1.007678 3.022609 12.992527
v 9.097887 0.806231 19.759813
v 9.097887 -3.218717 19.759813
v 9.097887 0.806231 12.060469
v 9.097887 -3.218717 12.060469
v 9.097887 0.806231 27.069775
v 9.097887 -3.218717 27.069775
v 15.266125 0.242265 14.163539
v 15.266125 -2.654750 14.163539
v 15.266125 0.242265 24.966705
v 15.266125 -2.654750 24.966705
v 27.553560 2.447095 14.163539
v 27.553560 -0.449920 14.163539
v 27.553560 2.447095 24.966705
v 27.553560 -0.449920 24.966705
v 56.800972 0.642917 -3.065711
v 52.010864 0.642917 -17.274534
v 56.800972 2.468709 -3.065711
v 52.010864 2.468709 -17.274534
v 34.626228 2.468709 12.491329
v 34.626228 0.642917 12.491329
v 56.800972 2.468709 12.491329
v 56.800972 0.642917 12.491329
v 34.626228 2.468709 13.736940
v 34.626228 0.642917 13.736940
v 49.880196 2.468709 25.422525
v 49.880196 0.642917 25.422525
v 33.880920 2.468709 14.709843
v 33.880920 0.642917 14.709843
v 36.867165 3.393924 26.395428
v 36.867165 1.568132 26.395428
vt 0.8295 0.9803
vt 0.7820 0.9255
vt 0.7498 0.8494
vt 0.8738 0.8135
vt 0.9132 0.8554
vt 0.9168 0.7773
vt 0.9531 0.7989
vt 0.9224 0.7520
vt 0.9850 0.7732
vt 0.5196 0.0716
vt 0.6281 0.2620
vt 0.5580 0.3210
vt 0.3876 0.2445
vt 0.4451 0.1455
vt 0.6897 0.3612
vt 0.6122 0.3869
vt 0.7600 0.4424
vt 0.6045 0.4285
vt -0.4326 0.3289
vt -0.4326 0.3289
vt -0.4326 0.3289
vt -0.4326 0.3289
vt 0.7683 0.0525
vt 0.7683 0.0590
vt 0.7137 0.0590
vt 0.7137 0.0525
vt 0.8422 0.0590
vt 0.8004 0.0590
vt 0.8004 0.0463
vt 0.8422 0.0463
vt -0.4326 0.3289
vt -0.4326 0.3289
vt -0.4326 0.3289
vt -0.4326 0.3289
vt 0.9191 0.0590
vt 0.9191 0.0525
vt 0.6981 0.9326
vt 0.7092 0.8479
vt 0.6179 0.9077
vt 0.6849 0.8530
vt -0.4326 0.3289
vt -0.4326 0.3289
vt 0.3243 0.0923
vt 0.3243 0.0984
vt 0.2960 0.0981
vt 0.2960 0.0920
vt 0.3303 0.2370
vt 0.3385 0.1287
vt -0.4326 0.3289
vt -0.4326 0.3289
vt -0.4326 0.3289
vt -0.4326 0.3289
vt 0.2765 0.0633
vt 0.2765 0.0694
vt 0.2383 0.0481
vt 0.2382 0.0420
vt -0.4326 0.3289
vt -0.4326 0.3289
vt -0.4326 0.3289
vt -0.4326 0.3289
vt 0.4754 0.0365
vt 0.4754 0.0301
vt 0.4800 0.0301
vt 0.4800 0.0365
vt 0.4068 0.8869
vt 0.4410 0.9643
vt 0.3361 0.9746
vt 0.3019 0.8972
vt 0.4352 0.0590
vt 0.4352 0.0525
vt 0.9065 0.4858
vt 0.8803 0.5195
vt 0.8304 0.5018
vt 0.8566 0.4681
vt 0.4845 0.0301
vt 0.4845 0.0365
vt 0.8251 0.5012
vt 0.8258 0.4676
vt 0.2129 0.0481
vt 0.2128 0.0419
vt 0.2764 0.9608
vt 0.2914 0.8958
vt 0.1924 0.0417
vt 0.1925 0.0478
vt 0.1782 0.0477
vt 0.1781 0.0416
vt 0.8200 0.5011
vt 0.8045 0.4799
vt 0.2410 0.9268
vt 0.2813 0.8935
vt 0.4888 0.0366
vt 0.4888 0.0302
vt 0.5177 0.0305
vt 0.5177 0.0370
vt 0.2338 0.8931
vt 0.2751 0.8860
vt 0.8160 0.5040
vt 0.7968 0.4954
vt 0.7833 0.5258
vt 0.8025 0.5345
vt 0.8001 0.5373
vt 0.7790 0.5355
vt 0.1507 0.0477
vt 0.1506 0.0416
vt 0.2223 0.8278
vt 0.2636 0.8207
vt 0.1418 0.0416
vt 0.1419 0.0477
vt 0.1342 0.0477
vt 0.1341 0.0416
vt 0.2186 0.8070
vt 0.2604 0.8141
vt 0.5209 0.0307
vt 0.5209 0.0371
vt 0.5234 0.0371
vt 0.5234 0.0307
vt 0.5324 0.0377
vt 0.5324 0.0441
vt 0.2269 0.7903
vt 0.2613 0.8085
vt 0.7999 0.5401
vt 0.7810 0.5447
vt 0.1218 0.0483
vt 0.1219 0.0544
vt 0.1106 0.0588
vt 0.1105 0.0527
vt 0.8031 0.5529
vt 0.7881 0.5600
vt 0.2479 0.7641
vt 0.2737 0.7854
vt 0.2836 0.7730
vt 0.2704 0.7454
vt 0.3231 0.7043
vt 0.3486 0.7577
vt 0.5377 0.0422
vt 0.5377 0.0487
vt 0.8064 0.5602
vt 0.7968 0.5718
vt 0.5667 0.0516
vt 0.5667 0.0392
vt 0.5818 0.0502
vt 0.5818 0.0626
vt 0.8362 0.5755
vt 0.8175 0.5982
vt 0.0831 0.0619
vt 0.0829 0.0501
vt 0.2751 0.0884
vt 0.2751 0.0945
vt 0.2687 0.0945
vt 0.2687 0.0884
vt -0.4326 0.3289
vt -0.4326 0.3289
vt 0.2979 0.2246
vt 0.2274 0.1179
vt 0.6653 0.8361
vt 0.6107 0.8869
vt 0.5993 0.8747
vt 0.6521 0.8195
vt 0.2634 0.2408
vt 0.2085 0.1451
vt -0.4326 0.3289
vt -0.4326 0.3289
vt 0.5942 0.8500
vt 0.6336 0.7903
vt -0.4326 0.3289
vt -0.4326 0.3289
vt 0.2640 0.0946
vt 0.2640 0.0885
vt 0.2377 0.2593
vt 0.1878 0.1577
vt 0.2575 0.0885
vt 0.2575 0.0946
vt 0.2056 0.0899
vt 0.2056 0.0838
vt -0.4326 0.3289
vt -0.4326 0.3289
vt 0.2031 0.2998
vt 0.1705 0.1922
vt 0.6431 0.7093
vt 0.5942 0.7041
vt 0.6085 0.6684
vt 0.6494 0.6845
vt 0.1260 0.4420
vt 0.0436 0.3947
vt -0.4326 0.3289
vt -0.4326 0.3289
vt -0.4326 0.3289
vt -0.4326 0.3289
vt -0.4326 0.3289
vt -0.4326 0.3289
vt 0.1896 0.0903
vt 0.1896 0.0842
vt 0.1077 0.4887
vt 0.0194 0.4632
vt 0.1608 0.0846
vt 0.1608 0.0907
vt 0.1543 0.0908
vt 0.1543 0.0847
vt 0.0914 0.5559
vt 0.0194 0.6091
vt 0.6525 0.6129
vt 0.6768 0.6514
vt 0.6953 0.6360
vt 0.6668 0.6055
vt 0.7213 0.5844
vt 0.7249 0.6246
vt 0.1174 0.5912
vt 0.0404 0.6371
vt -0.4326 0.3289
vt -0.4326 0.3289
vt 0.1311 0.0849
vt 0.1311 0.0910
vt 0.1248 0.0911
vt 0.1248 0.0850
vt -0.4326 0.3289
vt -0.4326 0.3289
vt 0.1689 0.6253
vt 0.1456 0.7022
vt 0.1745 0.7097
vt 0.2054 0.6436
vt 0.2459 0.6464
vt 0.2590 0.7006
vt 0.7361 0.5844
vt 0.7467 0.6200
vt -0.4326 0.3289
vt -0.4326 0.3289
vt 0.7675 0.6233
vt 0.7787 0.5929
vt 0.7874 0.5973
vt 0.7876 0.6335
vt -0.4326 0.3289
vt -0.4326 0.3289
vt 0.1054 0.0936
vt 0.1054 0.0875
vt 0.1001 0.0875
vt 0.1001 0.0936
vt 0.0797 0.0935
vt 0.0797 0.0874
vt -0.4326 0.3289
vt -0.4326 0.3289
vt 0.2870 0.6356
vt 0.2750 0.6953
vt 0.8111 0.6369
vt 0.8182 0.6076
vt 0.8266 0.6138
vt 0.8133 0.6374
vt 0.3301 0.6318
vt 0.3351 0.6891
vt -0.4326 0.3289
vt -0.4326 0.3289
vt 0.8382 0.6219
vt 0.8242 0.6432
vt -0.4326 0.3289
vt -0.4326 0.3289
vt 0.0722 0.0935
vt 0.0722 0.0874
vt 0.3342 0.6314
vt 0.3531 0.6796
vt 0.8573 0.5951
vt 0.8851 0.6163
vt 0.8637 0.6389
vt 0.8398 0.6163
vt -0.4326 0.3289
vt -0.4326 0.3289
vt 0.0620 0.0957
vt 0.0620 0.0896
vt 0.3568 0.6210
vt 0.3770 0.6680
vt 0.5881 0.0506
vt 0.5881 0.0622
vt 0.8523 0.5898
vt 0.8337 0.6124
vt 0.0688 0.0726
vt 0.0687 0.0607
vt 0.3611 0.6845
vt 0.3866 0.7379
vt 0.0375 0.0690
vt 0.0627 0.0612
vt 0.0628 0.0723
vt 0.0376 0.0824
vt 0.3748 0.6800
vt 0.3988 0.7301
vt 0.6167 0.0725
vt 0.6167 0.0584
vt 0.6396 0.0604
vt 0.6396 0.0705
vt 0.0375 0.0959
vt 0.0375 0.0824
vt 0.4305 0.6493
vt 0.4612 0.7032
vt 0.4007 0.5985
vt 0.8434 0.6600
vt -0.4326 0.3289
vt -0.4326 0.3289
vt -0.4326 0.3289
vt -0.4326 0.3289
vt 0.8974 0.6397
vt 0.8653 0.6713
vt 0.4502 0.5893
vt 0.4961 0.6638
vt 0.9346 0.6766
vt 0.8965 0.7048
vt 0.6827 0.0526
vt 0.6827 0.0628
vt 0.5242 0.5385
vt 0.5873 0.6116
vt -0.4326 0.3289
vt -0.4326 0.3289
vt -0.4326 0.3289
vt -0.4326 0.3289
vt -0.4326 0.3289
vt -0.4326 0.3289
vt 0.9245 0.7534
vt 0.9264 0.7545
vt 0.6136 0.4584
vt 0.6133 0.4496
vt 0.9710 0.6989
vt 0.9270 0.7526
vt 0.9266 0.7510
vt 0.9623 0.7022
vt 0.6561 0.5694
vt 0.6095 0.4675
vt -0.4326 0.3289
vt -0.4326 0.3289
vt 0.7093 0.0525
vt 0.7093 0.0590
vt 0.7050 0.0590
vt 0.7050 0.0525
vt 0.6460 0.5673
vt 0.6025 0.4717
vt -0.4326 0.3289
vt -0.4326 0.3289
vt 0.6352 0.5685
vt 0.5663 0.5002
vt -0.4326 0.3289
vt -0.4326 0.3289
vt 0.9119 0.7306
vt 0.9546 0.7024
vn 0.0000 -1.0000 0.0000
vn -0.0840 0.9965 0.0000
vn 0.0000 1.0000 0.0000
vn 0.2427 0.9701 0.0000
vn -0.6273 0.0000 -0.7787
vn -1.0000 0.0000 0.0000
vn 0.0000 0.0000 1.0000
vn 0.2620 0.0000 -0.9651
vn 0.2620 0.0000 0.9651
vn -0.6273 0.0000 0.7787
vn 0.0000 0.0000 -1.0000
vn 0.1688 -0.9857 0.0000
vn 0.4414 0.0000 -0.8973
vn -0.4413 -0.0240 0.8970
vn -0.3447 0.0252 -0.9384
vn 0.5224 0.0000 0.8527
vn 0.5140 0.8578 0.0000
vn 0.3580 0.0000 0.9337
vn -0.5140 -0.8578 0.0000
vn 0.5980 0.0000 0.8015
vn -0.6003 0.0214 -0.7995
vn -0.9792 -0.0054 0.2027
vn 0.0017 -1.0000 -0.0023
vn -0.9252 0.0102 -0.3795
vn -0.0017 1.0000 0.0023
vn 0.9711 0.0000 -0.2387
vn -0.0003 1.0000 0.0059
vn 0.9617 0.0000 0.2740
vn 0.0003 -1.0000 -0.0059
vn -0.0079 -0.9998 -0.0184
vn -0.0030 -0.9999 -0.0127
vn -0.9711 -0.0064 0.2386
vn 0.0032 0.9999 0.0126
vn -0.6393 -0.0206 0.7686
vn 0.0081 0.9998 0.0184
vn 0.9994 0.0000 0.0351
vn 0.6231 0.0000 -0.7822
vn 0.0036 1.0000 0.0039
vn 0.8365 0.0000 -0.5480
vn -0.0035 -1.0000 -0.0040
vn -0.1994 -0.0263 0.9796
vn -0.4571 -0.8416 -0.2878
vn -0.4486 -0.0240 0.8934
vn 0.4587 0.8416 0.2851
vn -0.1063 0.9943 0.0079
vn 0.4644 0.8813 0.0876
vn 0.4328 0.0000 -0.9015
vn -0.4642 -0.8813 -0.0887
vn -0.0320 0.0000 -0.9995
vn -0.2869 0.0000 -0.9579
vn -0.1043 -0.9945 0.0079
vn -0.1406 -0.0265 0.9897
vn 0.0000 -0.0268 0.9996
vn 0.0046 -0.0268 0.9996
vn -0.1688 0.9857 0.0000
vn 0.0021 -1.0000 -0.0018
vn -0.4624 0.0000 -0.8867
vn 0.0011 -1.0000 -0.0043
vn -0.6547 0.0000 -0.7559
vn 0.4766 -0.0236 0.8788
vn -0.0021 1.0000 0.0018
vn 1.0000 -0.0000 0.0000
vn -0.9890 0.0000 -0.1482
vn 0.8113 -0.0157 0.5844
vn -0.0012 1.0000 0.0043
vn 0.0213 0.9928 0.1178
vn -0.0222 -0.9928 -0.1178
vn -0.9834 0.0000 0.1814
vn 0.9834 0.0049 -0.1814
vn 0.0023 0.9999 0.0130
vn -0.0024 -0.9999 -0.0130
vn -0.0067 -0.9999 -0.0075
vn 0.0030 1.0000 0.0065
vn -0.0030 -1.0000 -0.0065
vn -0.8835 0.0000 0.4684
vn 0.7489 0.0178 -0.6625
vn -0.7489 0.0000 0.6627
vn 0.0066 0.9999 0.0075
vn -0.1153 0.9926 -0.0389
vn 0.0046 1.0000 0.0030
vn -0.0046 -1.0000 -0.0030
vn -0.6752 0.0000 0.7376
vn -0.0018 -1.0000 0.0001
vn 0.1154 -0.9926 0.0387
vn -0.3187 0.0000 0.9478
vn 0.3157 0.0254 -0.9485
vn -0.4002 0.0246 -0.9161
vn -0.0820 0.0000 0.9966
vn 0.3187 0.0254 -0.9475
vn 0.0018 1.0000 -0.0001
vn 0.0019 -1.0000 -0.0006
vn -0.0049 1.0000 0.0022
vn 0.0049 -1.0000 -0.0021
vn 0.4002 0.0000 0.9164
vn 0.2103 -0.9772 -0.0294
vn -0.0901 0.0267 -0.9956
vn -0.0019 1.0000 0.0006
vn -0.3492 -0.9370 0.0124
vn 0.1391 0.0000 0.9903
vn -0.1448 0.0265 -0.9891
vn -0.2103 0.9772 0.0297
vn 0.0530 0.0000 -0.9986
vn -0.5866 -0.8086 0.0443
vn 0.0125 -0.0268 0.9996
vn 0.5866 0.8087 -0.0438
vn 0.0050 -0.0121 0.9999
vn 0.0630 -0.9980 -0.0048
vn 0.2015 -0.0263 0.9791
vn 0.0610 0.9981 -0.0045
vn 0.3227 0.0000 -0.9465
vn -0.2347 0.0081 -0.9720
vn -0.1145 0.0000 -0.9934
vn 0.2716 0.9624 -0.0096
vn -0.0149 0.9999 0.0009
vn -0.2961 -0.9550 0.0188
vn 0.0726 0.0000 0.9974
vn 0.3227 0.0000 0.9465
vn 0.0911 -0.9958 0.0000
vn 0.0911 0.9958 0.0000
vn 0.1766 -0.9843 0.0000
vn -0.1766 0.9843 0.0000
vn 0.9476 0.0000 -0.3195
vn 0.3696 0.0000 -0.9292
vn -0.7938 0.0000 -0.6081
vn 0.8817 0.0000 0.4719
vn 0.0860 0.0000 -0.9963
vn 0.0552 0.9951 -0.0825
vn 0.0746 0.0000 0.9972
vn -0.0552 -0.9951 0.0825
vn 0.1933 -0.9810 0.0147
vn -0.1516 0.0000 0.9884
vn -0.0576 0.9978 -0.0334
usemtl TrackMeshMaterial
s off
f 1/1/1 18/2/1 3/3/1 4/4/1 2/5/1
f 4/4/1 6/6/1 5/7/1 2/5/1
f 6/6/1 8/8/1 7/9/1 5/7/1
f 9/10/2 10/11/2 12/12/2 11/13/2 17/14/2
f 12/12/3 10/11/3 13/15/3 14/16/3
f 14/16/4 13/15/4 15/17/4 16/18/4
f 8/19/5 6/20/5 14/21/5 16/22/5
f 15/23/6 7/24/6 154/25/6 153/26/6
f 2/27/7 5/28/7 13/29/7 10/30/7
f 4/31/8 3/32/8 11/33/8 12/34/8
f 1/35/9 2/27/9 10/30/9 9/36/9
f 5/28/10 7/24/10 15/23/10 13/29/10
f 6/20/11 4/31/11 12/34/11 14/21/11
f 3/3/1 18/2/1 22/37/1 19/38/1
f 19/38/12 22/37/12 70/39/12 67/40/12
f 11/33/13 3/32/13 19/41/13 20/42/13
f 18/43/14 17/44/14 21/45/14 22/46/14
f 17/14/3 11/13/3 20/47/3 21/48/3
f 18/49/7 1/50/7 23/51/7 26/52/7
f 25/53/15 26/54/15 30/55/15 29/56/15
f 1/50/7 9/57/7 24/58/7 23/51/7
f 9/57/7 17/59/7 25/60/7 24/58/7
f 27/61/16 28/62/16 32/63/16 31/64/16
f 24/65/17 25/66/17 29/67/17 28/68/17
f 23/69/18 24/70/18 28/62/18 27/61/18
f 26/71/19 23/72/19 27/73/19 30/74/19
f 31/64/20 32/63/20 38/75/20 36/76/20
f 30/74/1 27/73/1 31/77/1 34/78/1
f 29/56/21 30/55/21 34/79/21 33/80/21
f 28/68/3 29/67/3 33/81/3 32/82/3
f 37/83/22 35/84/22 39/85/22 41/86/22
f 34/78/23 31/77/23 36/87/23 35/88/23
f 33/80/24 34/79/24 35/84/24 37/83/24
f 32/82/25 33/81/25 37/89/25 38/90/25
f 40/91/26 42/92/26 46/93/26 44/94/26
f 38/90/27 37/89/27 41/95/27 42/96/27
f 36/76/28 38/75/28 42/92/28 40/91/28
f 35/88/29 36/87/29 40/97/29 39/98/29
f 43/99/30 44/100/30 48/101/30 47/102/30
f 39/98/31 40/97/31 44/100/31 43/99/31
f 41/86/32 39/85/32 43/103/32 45/104/32
f 42/96/33 41/95/33 45/105/33 46/106/33
f 49/107/34 47/108/34 51/109/34 53/110/34
f 45/104/32 43/103/32 47/108/32 49/107/32
f 46/106/35 45/105/35 49/111/35 50/112/35
f 44/94/36 46/93/36 50/113/36 48/114/36
f 52/115/37 54/116/37 58/117/37 56/118/37
f 50/112/38 49/111/38 53/119/38 54/120/38
f 48/114/39 50/113/39 54/116/39 52/115/39
f 47/102/40 48/101/40 52/121/40 51/122/40
f 57/123/41 55/124/41 59/125/41 61/126/41
f 51/122/42 52/121/42 56/127/42 55/128/42
f 53/110/43 51/109/43 55/124/43 57/123/43
f 54/120/44 53/119/44 57/129/44 58/130/44
f 62/131/45 61/132/45 65/133/45 66/134/45
f 58/130/46 57/129/46 61/132/46 62/131/46
f 56/118/47 58/117/47 62/135/47 60/136/47
f 55/128/48 56/127/48 60/137/48 59/138/48
f 64/139/49 66/140/49 130/141/49 128/142/49
f 60/136/50 62/135/50 66/140/50 64/139/50
f 59/138/51 60/137/51 64/143/51 63/144/51
f 61/126/52 59/125/52 63/145/52 65/146/52
f 70/147/53 69/148/53 73/149/53 74/150/53
f 20/42/11 19/41/11 67/151/11 68/152/11
f 22/46/54 21/45/54 69/148/54 70/147/54
f 21/48/55 20/47/55 68/153/55 69/154/55
f 71/155/56 74/156/56 78/157/56 75/158/56
f 69/154/3 68/153/3 72/159/3 73/160/3
f 67/40/1 70/39/1 74/156/1 71/155/1
f 68/152/57 67/151/57 71/161/57 72/162/57
f 75/158/58 78/157/58 82/163/58 79/164/58
f 72/162/59 71/161/59 75/165/59 76/166/59
f 74/150/60 73/149/60 77/167/60 78/168/60
f 73/160/61 72/159/61 76/169/61 77/170/61
f 82/171/62 81/172/62 85/173/62 86/174/62
f 76/166/63 75/165/63 79/175/63 80/176/63
f 78/168/64 77/167/64 81/172/64 82/171/64
f 77/170/65 76/169/65 80/177/65 81/178/65
f 83/179/1 86/180/1 90/181/1 87/182/1
f 81/178/66 80/177/66 84/183/66 85/184/66
f 79/164/67 82/163/67 86/180/67 83/179/67
f 80/176/6 79/175/6 83/185/6 84/186/6
f 88/187/68 87/188/68 91/189/68 92/190/68
f 84/186/6 83/185/6 87/188/6 88/187/6
f 86/174/62 85/173/62 89/191/62 90/192/62
f 85/184/3 84/183/3 88/193/3 89/194/3
f 94/195/69 93/196/69 97/197/69 98/198/69
f 90/192/69 89/191/69 93/196/69 94/195/69
f 89/194/70 88/193/70 92/199/70 93/200/70
f 87/182/71 90/181/71 94/201/71 91/202/71
f 95/203/72 98/204/72 102/205/72 99/206/72
f 93/200/73 92/199/73 96/207/73 97/208/73
f 91/202/74 94/201/74 98/204/74 95/203/74
f 92/190/75 91/189/75 95/209/75 96/210/75
f 102/211/76 101/212/76 105/213/76 106/214/76
f 96/210/77 95/209/77 99/215/77 100/216/77
f 98/198/76 97/197/76 101/212/76 102/211/76
f 97/208/78 96/207/78 100/217/78 101/218/78
f 105/219/79 104/220/79 108/221/79 109/222/79
f 101/218/80 100/217/80 104/220/80 105/219/80
f 99/206/81 102/205/81 106/223/81 103/224/81
f 100/216/82 99/215/82 103/225/82 104/226/82
f 107/227/83 110/228/83 114/229/83 111/230/83
f 103/224/84 106/223/84 110/228/84 107/227/84
f 104/226/85 103/225/85 107/231/85 108/232/85
f 106/214/86 105/213/86 109/233/86 110/234/86
f 114/235/87 113/236/87 117/237/87 118/238/87
f 108/232/88 107/231/88 111/239/88 112/240/88
f 110/234/89 109/233/89 113/236/89 114/235/89
f 109/222/90 108/221/90 112/241/90 113/242/90
f 115/243/91 118/244/91 122/245/91 119/246/91
f 113/242/92 112/241/92 116/247/92 117/248/92
f 111/230/93 114/229/93 118/244/93 115/243/93
f 112/240/94 111/239/94 115/249/94 116/250/94
f 119/246/95 122/245/95 126/251/95 123/252/95
f 116/250/94 115/249/94 119/253/94 120/254/94
f 118/238/96 117/237/96 121/255/96 122/256/96
f 117/248/97 116/247/97 120/257/97 121/258/97
f 132/259/98 138/260/98 136/261/98 131/262/98
f 120/254/99 119/253/99 123/263/99 124/264/99
f 122/256/100 121/255/100 125/265/100 126/266/100
f 121/258/101 120/257/101 124/267/101 125/268/101
f 128/142/102 130/141/102 134/269/102 132/270/102
f 63/144/103 64/143/103 128/271/103 127/272/103
f 65/146/104 63/145/104 127/273/104 129/274/104
f 66/134/105 65/133/105 129/275/105 130/276/105
f 135/277/106 133/278/106 131/279/106 136/280/106
f 127/272/107 128/271/107 132/259/107 131/262/107
f 129/274/108 127/273/108 131/279/108 133/278/108
f 130/276/109 129/275/109 133/281/109 134/282/109
f 138/283/110 137/284/110 141/285/110 142/286/110
f 125/265/111 135/287/111 136/288/111 126/266/111
f 134/269/112 137/284/112 138/283/112 132/270/112
f 133/281/113 135/289/113 137/290/113 134/282/113
f 124/267/114 139/291/114 135/289/114 125/268/114
f 126/251/115 136/261/115 140/292/115 123/252/115
f 123/263/116 140/293/116 139/294/116 124/264/116
f 139/294/117 140/293/117 144/295/117 143/296/117
f 136/261/118 138/260/118 142/297/118 144/298/118 140/292/118
f 135/289/119 139/291/119 143/299/119 141/300/119 137/290/119
f 144/298/120 142/297/120 146/301/120 148/302/120
f 142/286/11 141/285/11 145/303/11 146/304/11
f 141/300/121 143/299/121 147/305/121 145/306/121
f 143/296/7 144/295/7 148/307/7 147/308/7
f 149/309/122 150/310/122 152/311/122 151/312/122
f 7/9/1 8/8/1 150/313/1 149/314/1
f 8/19/123 16/22/123 152/311/123 150/310/123
f 16/18/3 15/17/3 151/315/3 152/316/3
f 154/317/1 156/318/1 160/319/1 158/320/1
f 151/315/3 15/17/3 153/321/3 155/322/3
f 149/309/62 151/312/62 155/323/62 156/324/62
f 7/9/1 149/314/1 156/318/1 154/317/1
f 157/325/124 158/326/124 162/327/124 161/328/124
f 153/26/6 154/25/6 158/326/6 157/325/6
f 155/322/3 153/321/3 157/329/3 159/330/3
f 156/324/125 155/323/125 159/331/125 160/332/125
f 146/304/126 145/303/126 161/328/126 162/327/126
f 159/330/127 157/329/127 161/333/127 163/334/127
f 160/332/128 159/331/128 163/335/128 164/336/128
f 158/320/129 160/319/129 164/337/129 162/338/129
f 148/302/130 146/301/130 162/338/130 164/337/130
f 148/307/131 164/336/131 163/335/131 147/308/131
f 145/306/132 147/305/132 163/334/132 161/333/132
