ply
format ascii 1.0
comment Generated by PLYExportOperator registered with Blender.
element vertex 164
property float x
property float y
property float z
property float nx
property float ny
property float nz
property float u
property float v
element face 164
property list uchar int vertex_indices
end_header
-1.554344 1.465088 0.000000 0.313174 -1.153555 -0.993553 0.684714 0.438611
1.554344 2.309123 0.000000 0.138561 -1.039471 -1.147246 0.653521 0.368546
-1.554344 4.573777 0.000000 0.375743 0.994786 -1.133632 0.539742 0.461776
1.554344 3.729742 0.000000 0.138561 1.039471 -1.147246 0.603092 0.354341
3.305843 2.309123 0.000000 -0.316827 -0.898396 -1.228173 0.668342 0.312693
3.305843 3.729742 0.000000 -0.316827 0.898396 -1.228173 0.645290 0.299891
4.353576 1.465088 0.000000 -0.805895 -0.385657 -1.271861 0.683027 0.282305
4.353576 4.573777 0.000000 -0.183910 1.218685 -0.947065 0.659553 0.277816
-1.554344 1.465088 0.268696 0.241024 -1.189322 0.971258 0.674376 0.443074
1.554344 2.309123 0.530784 0.080737 -1.028703 1.162378 0.671489 0.369107
-1.554344 4.573777 0.268696 0.343581 1.015326 1.125568 0.407670 0.191519
1.554344 3.729742 0.530784 0.080737 1.028703 1.162378 0.592071 0.344007
3.305843 2.309123 0.530784 -0.109198 -0.895360 1.265790 0.678706 0.316460
3.305843 3.729742 0.530784 -0.109198 0.895360 1.265790 0.637253 0.291072
4.353576 1.465088 0.268696 -0.777860 -0.434753 1.273474 0.819968 0.410604
4.353576 4.573777 0.268696 -0.134719 1.249709 0.914334 0.647831 0.395298
-1.554344 3.012229 0.268696 -0.326314 -0.479391 1.442063 0.697886 0.457890
-1.554344 3.019433 0.000000 -0.237229 -0.482237 -1.458428 0.667258 0.464202
-2.673785 5.124496 0.000000 0.351882 1.156354 -0.977187 0.486493 0.504730
-2.673785 5.124496 0.268696 0.170913 1.121678 1.062288 0.344261 0.183297
-2.673785 3.562948 0.268696 -0.323658 -0.953801 1.183820 0.353306 0.063350
-2.673785 3.570152 0.000000 -0.133248 -1.007926 -1.175660 0.589270 0.566810
-1.554344 1.465088 0.000000 -0.462029 -0.774113 -1.266169 0.680287 0.438560
-1.554344 1.465088 0.268696 0.872400 -0.988050 0.823731 0.683901 0.440533
-1.554344 3.012229 0.268696 -0.052417 1.346811 0.774113 0.466789 0.988494
-1.554344 3.019433 0.000000 -0.890616 0.872922 -0.927759 0.676033 0.461558
-3.125054 0.862925 0.941299 0.306486 -1.091888 -1.062904 0.701624 0.400638
-3.125054 0.862925 1.209995 0.656992 -0.829850 1.138233 0.312831 0.914225
-3.125054 2.410066 1.209995 -0.154405 1.011816 1.169731 0.350653 0.999910
-3.125054 2.417269 0.941299 -0.846690 1.033826 -0.793846 0.720827 0.441225
-3.290156 0.761770 0.941299 0.609129 -0.896403 -1.114136 0.703255 0.390738
-3.290156 0.761770 1.209995 0.605145 -0.896261 1.116365 0.301214 0.912658
-4.020862 1.737457 1.209995 -0.928992 0.711449 1.023058 0.284598 0.984558
-4.020862 1.744661 0.941299 -0.935965 0.729997 -1.003420 0.740771 0.419837
-4.361372 0.914502 0.939785 -1.180689 0.118828 -1.003846 0.755498 0.393168
-3.441528 0.648823 0.939785 0.793609 -0.538971 -1.222907 0.706213 0.382423
-4.361372 0.907299 1.208481 -1.179977 0.100233 1.006740 0.245445 0.946906
-3.441528 0.648823 1.208481 0.785972 -0.550118 1.222907 0.691087 0.379628
-4.233589 0.297357 0.937473 -1.078511 -0.233339 -1.094639 0.762299 0.365418
-3.490665 0.476361 0.937473 0.991608 -0.005408 -1.196912 0.709055 0.372317
-4.233589 0.290154 1.206169 -1.077705 -0.254685 1.090655 0.237435 0.909602
-3.490665 0.476361 1.206169 0.992983 -0.030739 1.195394 0.283132 0.901752
-3.944231 -0.879884 0.921692 -1.069024 -0.244202 -1.101518 0.778922 0.298594
-3.201307 -0.700880 0.921692 1.138186 0.131588 -1.050287 0.729627 0.280569
-3.944231 -0.887088 1.190388 -1.065466 -0.280396 1.096347 0.224678 0.837324
-3.201307 -0.700880 1.190388 1.136526 0.103316 1.055267 0.710579 0.279624
-3.852138 -1.254561 0.916670 -1.009966 -0.613209 -1.009871 0.788614 0.276334
-3.206018 -0.834862 0.916670 0.920738 0.279305 -1.220678 0.732106 0.269829
-3.852138 -1.261764 1.185366 -1.008258 -0.649308 0.988762 0.220617 0.814320
-3.206018 -0.834862 1.185366 0.945405 0.242162 1.209720 0.710704 0.269523
-3.590277 -1.472337 0.915502 -0.862581 -0.890711 -0.937246 0.791876 0.252881
-3.148969 -0.921941 0.915502 0.630523 0.980033 -1.028513 0.733550 0.260419
-3.590277 -1.479540 1.184198 -0.346569 -1.054034 1.088473 0.229794 0.795857
-3.148969 -0.921941 1.184198 0.947634 0.407572 1.162663 0.267868 0.815945
-3.104398 -1.708470 0.622321 -0.838246 -0.871784 -0.976333 0.784886 0.214476
-2.852539 -1.158074 0.622321 0.010531 1.193212 -0.995972 0.744323 0.215326
-3.104398 -1.715673 0.891017 0.062379 -1.288274 0.867420 0.253074 0.766830
-2.852539 -1.158074 0.891017 1.078369 0.614157 0.935823 0.723867 0.226876
-2.613415 -1.803307 0.431470 -0.464875 -0.996589 -1.098434 0.777698 0.183336
-2.655015 -1.252911 0.431470 -0.417534 0.877571 -1.212993 0.748654 0.194921
-2.613415 -1.810511 0.700166 -0.065462 -1.228267 0.950196 0.793341 0.183336
-2.655015 -1.252911 0.700166 0.375221 1.063663 1.069403 0.732024 0.200676
-1.411043 -1.970764 0.306723 -0.408379 -1.208392 -0.888197 0.759850 0.124145
-1.491640 -0.904430 0.306723 -0.514209 1.182017 -0.868463 0.731615 0.148945
-1.411043 -1.984720 0.827293 0.266023 -1.026284 1.136620 0.336267 0.700589
-1.491640 -0.904430 0.827293 0.134245 1.053228 1.135150 0.364559 0.759752
-3.595147 5.124496 -0.157765 -0.185191 1.122058 -1.059537 0.455897 0.533814
-3.595147 5.124496 0.110931 -0.365639 1.155548 0.973060 0.449929 0.526610
-3.595147 3.562948 0.110931 -0.088896 -1.144542 1.047867 0.230345 0.051390
-3.595147 3.570152 -0.157765 0.096485 -1.055742 -1.136668 0.498292 0.641930
-4.471976 4.667259 -0.157765 -0.638492 0.941183 -1.059394 0.422261 0.552020
-4.471976 4.667259 0.110931 -0.640200 0.939143 1.060201 0.270237 0.187441
-3.875221 3.562948 0.110931 0.248092 -0.980935 1.179835 0.209472 0.081457
-3.875221 3.570152 -0.157765 0.242494 -0.952805 -1.203838 0.464103 0.654882
-5.040230 4.175138 -0.159094 -1.048911 0.580098 -0.989521 0.390989 0.559083
-5.040230 4.175138 0.109602 -1.051283 0.575165 0.989853 0.241740 0.207927
-4.058048 3.463828 0.109602 0.672077 -0.767377 1.172719 0.186555 0.095408
-4.058048 3.471031 -0.159094 0.660550 -0.746647 -1.192500 0.435838 0.667282
-5.208410 3.052831 -0.162222 -1.144400 0.155211 -1.040230 0.323344 0.560494
-5.208410 3.052831 0.106474 -1.097960 0.008017 1.100142 0.327533 0.543781
-4.226229 3.230422 0.106474 0.902380 -0.353543 1.215127 0.167367 0.133626
-4.226229 3.237625 -0.162222 0.937815 -0.241308 -1.215792 0.393034 0.668421
-5.208410 0.774854 -0.432562 -1.084251 0.057967 -1.112191 0.153234 0.483419
-5.208410 0.774854 -0.163866 -1.114990 -0.056639 1.081405 0.118051 0.410170
-4.226229 0.952444 -0.163866 1.126469 -0.070348 1.068644 0.026896 0.357830
-4.226229 0.959648 -0.432562 1.071823 0.074238 -1.123196 0.099111 0.562457
-5.208410 0.070961 -0.432562 -1.127702 -0.096106 -1.065324 0.141173 0.442737
-5.208410 0.070961 -0.163866 -1.121346 -0.109578 1.070732 0.097856 0.461944
-4.226229 0.248552 -0.163866 1.057971 0.090888 1.135055 0.000091 0.433619
-4.226229 0.255755 -0.432562 1.063711 0.103032 -1.128604 0.048032 0.483583
-4.978045 -1.177765 -0.449301 -1.085389 -0.367299 -1.050144 0.141904 0.355496
-4.978045 -1.177765 -0.180605 -1.082258 -0.387127 1.046302 0.160038 0.360009
-3.995864 -1.000175 -0.180605 1.080693 0.188085 1.101186 0.000091 0.595158
-3.995864 -0.992971 -0.449301 1.080930 0.210570 -1.096869 0.039572 0.316819
-4.611344 -1.869444 -0.453083 -0.940614 -0.641433 -1.058161 0.163688 0.300443
-4.611344 -1.869444 -0.184387 -0.929419 -0.654336 1.060106 0.108588 0.575366
-3.943809 -1.282345 -0.184387 0.885588 0.422705 1.205356 0.023346 0.626183
-3.943809 -1.275142 -0.453083 0.888624 0.441584 -1.196343 0.056773 0.276098
-3.933991 -2.634905 -0.463344 -0.801436 -0.776579 -1.081879 0.212527 0.232324
-3.933991 -2.634905 -0.194648 -0.791332 -0.789529 1.079982 0.227341 0.248435
-3.266455 -2.047807 -0.194648 0.821691 0.715671 1.108348 0.139833 0.698294
-3.266455 -2.040603 -0.463344 0.824537 0.740765 -1.089659 0.143151 0.146475
-3.380881 -3.141259 -0.466137 -0.524550 -1.009586 -1.059015 0.259839 0.195384
-3.380881 -3.141259 -0.197441 -0.654099 -0.996114 0.997869 0.272649 0.212984
-3.082044 -2.256205 -0.197441 0.491724 0.866186 1.193212 0.154384 0.084106
-3.082044 -2.249002 -0.466137 0.603816 0.786920 -1.196675 0.177943 0.121465
-2.571416 -3.413465 -0.361385 -0.174471 -1.151753 -1.029035 0.323341 0.165506
-2.571416 -3.413465 -0.092689 -0.288318 -1.077847 1.082116 0.250857 0.636482
-2.272580 -2.528412 -0.092689 0.274609 1.029984 1.131165 0.265337 0.696457
-2.272580 -2.521209 -0.361385 0.422467 1.055979 -1.059347 0.294096 0.052695
-1.662015 -3.488295 -0.362388 0.194204 -1.155500 -1.021255 0.391286 0.144737
-1.662015 -3.488295 -0.093692 0.190694 -1.158963 1.018030 0.397769 0.164305
-2.050057 -2.603242 -0.093692 -0.041317 0.921734 1.250800 0.283073 0.690600
-2.050057 -2.596038 -0.362388 -0.040416 0.950860 -1.228884 0.328600 0.046454
-0.840665 -3.129642 -0.357580 0.443529 -1.005696 -1.099004 0.456615 0.129427
-0.840665 -3.129642 -0.088884 0.436082 -1.008780 1.099146 0.344011 0.620388
-1.228707 -2.244589 -0.088884 -0.286230 1.098719 1.061481 0.349538 0.683730
-1.228707 -2.237385 -0.357580 -0.284855 1.128841 -1.029794 0.444473 0.032629
-0.771919 -3.099624 -0.357178 0.398275 -0.946638 -1.166648 0.461951 0.126099
-0.771919 -3.099624 -0.088482 0.178123 -1.070494 1.112760 0.348627 0.619941
-0.896756 -2.214570 -0.088482 -0.243775 1.091224 1.079650 0.369559 0.673209
-0.896756 -2.207366 -0.357178 -0.001708 1.076709 -1.120967 0.482363 0.041823
-0.326764 -3.037089 -0.259502 0.075471 -1.182586 -1.005839 0.498388 0.134134
-0.326764 -3.037089 0.009194 -0.018026 -1.062999 1.133822 0.489139 0.152761
-0.451601 -2.152035 0.009194 -0.324986 0.997395 1.146962 0.396002 0.660455
-0.451601 -2.144832 -0.259502 -0.277787 1.162568 -0.993553 0.533206 0.054086
-0.777034 -1.950482 -0.154318 -0.205020 -1.033067 -1.143072 0.726302 0.104793
-0.857631 -0.884149 -0.154318 -0.335042 0.996494 -1.144827 0.721130 0.135645
-0.777034 -1.964439 0.366252 0.443909 -1.210242 0.868463 0.378366 0.678649
-0.857631 -0.884149 0.366252 0.337651 1.228932 0.889715 0.406658 0.737813
-0.518412 -1.897696 -0.137753 -0.040890 -1.138281 -1.057639 0.712543 0.099637
-0.593961 -0.898152 -0.137753 -0.190219 1.141459 -1.037668 0.717547 0.135842
-0.518412 -1.910779 0.350212 0.312415 -1.014709 1.135197 0.393591 0.673668
-0.593961 -0.898152 0.350212 0.168446 1.039329 1.143356 0.420111 0.729126
0.596650 -1.894072 0.024034 0.088326 -0.085006 1.549458 0.455213 0.639751
0.596650 -1.894072 -0.568305 -0.249705 0.002230 -1.534136 0.634379 0.113355
0.596650 -0.760984 0.024034 0.284380 1.184484 0.965376 0.489160 0.699357
0.596650 -0.760984 -0.568305 -0.024762 1.098055 -1.099810 0.687893 0.149833
0.596650 -2.969856 0.024034 0.252788 -1.098387 1.070257 0.422259 0.583489
0.596650 -2.969856 -0.568305 0.078981 -1.072819 -1.121915 0.559931 0.152809
1.504410 -1.070486 -0.058963 0.139415 1.075096 1.113851 0.527840 0.655766
1.504410 -1.070486 -0.485307 0.329777 0.991655 -1.150567 0.675531 0.178109
1.504410 -2.660354 -0.058963 0.139415 -1.075096 1.113851 0.579903 0.194250
1.504410 -2.660354 -0.485307 0.329777 -0.991655 -1.150567 0.595434 0.182459
3.312713 -1.070486 0.265515 -0.082681 1.094545 1.100474 0.628778 0.597966
3.312713 -1.070486 -0.160829 0.242731 1.106261 -1.064470 0.672208 0.232281
3.312713 -2.660354 0.265515 -0.219013 -1.038807 1.135245 0.558962 0.517075
3.312713 -2.660354 -0.160829 0.139083 -1.074574 -1.114373 0.627219 0.234157
7.616962 1.465088 0.000000 1.135292 0.186187 -1.045163 0.690228 0.262669
6.912017 3.556155 0.000000 0.881793 0.835874 -0.969360 0.672898 0.270017
7.616962 1.465088 0.268696 1.135292 0.186187 1.045163 0.680850 0.265572
6.912017 3.556155 0.268696 0.881793 0.835874 0.969360 0.657624 0.418662
4.353576 -0.824392 0.268696 -1.099051 0.000000 1.099051 0.704954 0.551266
4.353576 -0.824392 0.000000 -1.099051 0.000000 -1.099051 0.685918 0.266764
7.616962 -0.824392 0.268696 1.137569 -0.285234 1.019975 0.671713 0.265143
7.616962 -0.824392 0.000000 1.137569 -0.285234 -1.019975 0.673500 0.264692
4.353576 -1.007705 0.268696 -0.885445 0.351740 1.228030 0.693806 0.548893
4.353576 -1.007705 0.000000 -0.931980 0.264932 -1.215365 0.681513 0.263025
6.598453 -2.727436 0.268696 0.685075 -1.025999 0.945452 0.659152 0.263524
6.598453 -2.727436 0.000000 0.654478 -1.032450 -0.959968 0.660206 0.263434
4.243891 -1.150884 0.268696 -0.335564 0.844793 1.260809 0.681839 0.550276
4.243891 -1.150884 0.000000 -0.271573 0.791047 -1.310095 0.677435 0.259472
4.683367 -2.870615 0.404857 -0.031830 -1.074289 1.122864 0.605598 0.474604
4.683367 -2.870615 0.136161 -0.006594 -1.209720 -0.975906 0.645683 0.253493
5 0 17 2 3 1 
4 3 5 4 1 
4 5 7 6 4 
5 8 9 11 10 16 
4 11 9 12 13 
4 13 12 14 15 
4 7 5 13 15 
4 14 6 153 152 
4 1 4 12 9 
4 3 2 10 11 
4 0 1 9 8 
4 4 6 14 12 
4 5 3 11 13 
4 2 17 21 18 
4 18 21 69 66 
4 10 2 18 19 
4 17 16 20 21 
4 16 10 19 20 
4 17 0 22 25 
4 24 25 29 28 
4 0 8 23 22 
4 8 16 24 23 
4 16 17 25 24 
4 26 27 31 30 
4 23 24 28 27 
4 22 23 27 26 
4 25 22 26 29 
4 30 31 37 35 
4 29 26 30 33 
4 28 29 33 32 
4 27 28 32 31 
4 36 34 38 40 
4 33 30 35 34 
4 32 33 34 36 
4 31 32 36 37 
4 39 41 45 43 
4 37 36 40 41 
4 35 37 41 39 
4 34 35 39 38 
4 42 43 47 46 
4 38 39 43 42 
4 40 38 42 44 
4 41 40 44 45 
4 48 46 50 52 
4 44 42 46 48 
4 45 44 48 49 
4 43 45 49 47 
4 51 53 57 55 
4 49 48 52 53 
4 47 49 53 51 
4 46 47 51 50 
4 56 54 58 60 
4 50 51 55 54 
4 52 50 54 56 
4 53 52 56 57 
4 61 60 64 65 
4 57 56 60 61 
4 55 57 61 59 
4 54 55 59 58 
4 63 65 129 127 
4 59 61 65 63 
4 58 59 63 62 
4 60 58 62 64 
4 69 68 72 73 
4 19 18 66 67 
4 21 20 68 69 
4 20 19 67 68 
4 70 73 77 74 
4 68 67 71 72 
4 66 69 73 70 
4 67 66 70 71 
4 74 77 81 78 
4 71 70 74 75 
4 73 72 76 77 
4 72 71 75 76 
4 81 80 84 85 
4 75 74 78 79 
4 77 76 80 81 
4 76 75 79 80 
4 82 85 89 86 
4 80 79 83 84 
4 78 81 85 82 
4 79 78 82 83 
4 87 86 90 91 
4 83 82 86 87 
4 85 84 88 89 
4 84 83 87 88 
4 93 92 96 97 
4 89 88 92 93 
4 88 87 91 92 
4 86 89 93 90 
4 94 97 101 98 
4 92 91 95 96 
4 90 93 97 94 
4 91 90 94 95 
4 101 100 104 105 
4 95 94 98 99 
4 97 96 100 101 
4 96 95 99 100 
4 104 103 107 108 
4 100 99 103 104 
4 98 101 105 102 
4 99 98 102 103 
4 106 109 113 110 
4 102 105 109 106 
4 103 102 106 107 
4 105 104 108 109 
4 113 112 116 117 
4 107 106 110 111 
4 109 108 112 113 
4 108 107 111 112 
4 114 117 121 118 
4 112 111 115 116 
4 110 113 117 114 
4 111 110 114 115 
4 118 121 125 122 
4 115 114 118 119 
4 117 116 120 121 
4 116 115 119 120 
4 131 137 135 130 
4 119 118 122 123 
4 121 120 124 125 
4 120 119 123 124 
4 127 129 133 131 
4 62 63 127 126 
4 64 62 126 128 
4 65 64 128 129 
4 134 132 130 135 
4 126 127 131 130 
4 128 126 130 132 
4 129 128 132 133 
4 137 136 140 141 
4 124 134 135 125 
4 133 136 137 131 
4 132 134 136 133 
4 123 138 134 124 
4 125 135 139 122 
4 122 139 138 123 
4 138 139 143 142 
5 135 137 141 143 139 
5 134 138 142 140 136 
4 143 141 145 147 
4 141 140 144 145 
4 140 142 146 144 
4 142 143 147 146 
4 148 149 151 150 
4 6 7 149 148 
4 7 15 151 149 
4 15 14 150 151 
4 153 155 159 157 
4 150 14 152 154 
4 148 150 154 155 
4 6 148 155 153 
4 156 157 161 160 
4 152 153 157 156 
4 154 152 156 158 
4 155 154 158 159 
4 145 144 160 161 
4 158 156 160 162 
4 159 158 162 163 
4 157 159 163 161 
4 147 145 161 163 
4 147 163 162 146 
4 144 146 162 160 
