ply
format ascii 1.0
comment Generated by PLYExportOperator registered with Blender.
element vertex 164
property float x
property float y
property float z
property float nx
property float ny
property float nz
property float u
property float v
element face 164
property list uchar int vertex_indices
end_header
-1.000000 0.942576 0.000000 0.170324 -0.627369 0.759819 0.684714 0.561389
1.000000 1.485593 0.000000 0.089145 -0.668752 -0.738090 0.653521 0.631454
-1.000000 2.942576 0.000000 0.241737 0.640004 -0.729331 0.539742 0.538224
1.000000 2.399560 0.000000 0.089145 0.668752 -0.738090 0.603092 0.645659
2.126841 1.485593 0.000000 -0.203833 -0.577990 -0.790155 0.668342 0.687307
2.126841 2.399560 0.000000 -0.203833 0.577990 -0.790155 0.645290 0.700109
2.800908 0.942576 0.000000 -0.518479 -0.248115 -0.818262 0.683027 0.717695
2.800908 2.942576 0.000000 -0.118320 0.784051 -0.609302 0.659553 0.722184
-1.000000 0.942576 0.172868 0.068270 -0.336894 0.939055 0.674376 0.556926
1.000000 1.485593 0.341484 0.051943 -0.661824 0.747826 0.671489 0.630893
-1.000000 2.942576 0.172868 0.221046 0.653218 0.724143 0.407670 0.808481
1.000000 2.399560 0.341484 0.051943 0.661824 0.747826 0.592071 0.655993
2.126841 1.485593 0.341484 -0.070254 -0.576037 0.814356 0.678706 0.683540
2.126841 2.399560 0.341484 -0.070254 0.576037 0.814356 0.637253 0.708928
2.800908 0.942576 0.172868 -0.500443 -0.279702 0.819300 0.819968 0.589396
2.800908 2.942576 0.172868 -0.086673 0.804010 0.588244 0.647831 0.604702
-1.000000 1.937942 0.172868 -0.126225 -0.185430 0.974487 0.697886 0.542110
-1.000000 1.942576 0.000000 -0.356883 -0.725455 -0.588488 0.667258 0.535798
-1.720201 3.296886 0.000000 0.226386 0.743950 -0.628681 0.486493 0.495270
-1.720201 3.296886 0.172868 0.109958 0.721641 0.683432 0.344261 0.816703
-1.720201 2.292252 0.172868 -0.208228 -0.613636 0.761620 0.353306 0.936650
-1.720201 2.296886 0.000000 -0.085726 -0.648457 -0.756371 0.589270 0.433190
-1.000000 0.942576 0.000000 -0.309549 -0.518662 0.796930 0.680287 0.561440
-1.000000 0.942576 0.172868 0.316446 -0.358409 0.878262 0.683901 0.559467
-1.000000 1.937942 0.172868 -0.016236 0.417463 0.908536 0.466789 0.011506
-1.000000 1.942576 0.000000 -0.398846 0.390912 0.829493 0.676033 0.538442
-2.010529 0.555170 0.605592 0.197180 -0.702475 -0.683828 0.701624 0.599362
-2.010529 0.555170 0.778460 0.422681 -0.533891 0.732292 0.312831 0.085775
-2.010529 1.550535 0.778460 -0.099338 0.650960 0.752556 0.350653 0.000090
-2.010529 1.555170 0.605592 -0.544725 0.665120 -0.510727 0.720827 0.558775
-2.116749 0.490091 0.605592 0.391888 -0.576708 -0.716788 0.703255 0.609262
-2.116749 0.490091 0.778460 0.389325 -0.576617 0.718223 0.301214 0.087342
-2.586854 1.117807 0.778460 -0.597674 0.457717 0.658193 0.284598 0.015442
-2.586854 1.122442 0.605592 -0.602161 0.469649 -0.645558 0.740771 0.580163
-2.805924 0.588352 0.604618 -0.759606 0.076449 -0.645833 0.755498 0.606832
-2.214135 0.417425 0.604618 0.510575 -0.346751 -0.786767 0.706213 0.617577
-2.805924 0.583718 0.777486 -0.759148 0.064486 0.647694 0.245445 0.053094
-2.214135 0.417425 0.777486 0.505661 -0.353923 0.786767 0.691087 0.620372
-2.723714 0.191307 0.603131 -0.693869 -0.150121 -0.704245 0.762299 0.634582
-2.245748 0.306471 0.603131 0.637959 -0.003479 -0.770043 0.709055 0.627683
-2.723714 0.186673 0.775999 -0.693350 -0.163854 0.701682 0.237435 0.090398
-2.245748 0.306471 0.775999 0.638844 -0.019776 0.769066 0.283132 0.098248
-2.537553 -0.566081 0.592978 -0.687765 -0.157109 -0.708670 0.778922 0.701406
-2.059587 -0.450917 0.592978 0.732261 0.084658 -0.675710 0.729627 0.719431
-2.537553 -0.570715 0.765846 -0.685476 -0.180395 0.705344 0.224678 0.162676
-2.059587 -0.450917 0.765846 0.731193 0.066469 0.678915 0.710579 0.720376
-2.478304 -0.807132 0.589747 -0.649770 -0.394513 -0.649709 0.788614 0.723666
-2.062618 -0.537115 0.589747 0.592364 0.179693 -0.785333 0.732106 0.730171
-2.478304 -0.811766 0.762615 -0.648671 -0.417737 0.636128 0.220617 0.185680
-2.062618 -0.537115 0.762615 0.608234 0.155797 0.778283 0.710704 0.730477
-2.309834 -0.947240 0.588996 -0.554949 -0.573046 -0.602985 0.791876 0.747119
-2.025915 -0.593138 0.588996 0.405652 0.630512 -0.661702 0.733550 0.739581
-2.309834 -0.951874 0.761864 -0.222968 -0.678121 0.700278 0.229794 0.204143
-2.025915 -0.593138 0.761864 0.609668 0.262215 0.748009 0.267868 0.184055
-1.997239 -1.099158 0.400375 -0.539293 -0.560869 -0.628132 0.784886 0.785524
-1.835204 -0.745056 0.400375 0.006775 0.767663 -0.640767 0.744323 0.784674
-1.997239 -1.103792 0.573243 0.040132 -0.828822 0.558061 0.253074 0.233170
-1.835204 -0.745056 0.573243 0.693777 0.395123 0.602069 0.723867 0.773124
-1.681361 -1.160172 0.277589 -0.299081 -0.641163 -0.706687 0.777698 0.816664
-1.708125 -0.806071 0.277589 -0.268624 0.564592 -0.780389 0.748654 0.805079
-1.681361 -1.164807 0.450457 -0.042116 -0.790216 0.611316 0.793341 0.816664
-1.708125 -0.806071 0.450457 0.241401 0.684317 0.688009 0.732024 0.799324
-0.907806 -1.267907 0.197333 -0.262734 -0.777429 -0.571429 0.759850 0.875855
-0.959658 -0.581873 0.197333 -0.330821 0.760460 -0.558733 0.731615 0.851055
-0.907806 -1.276886 0.532246 0.171148 -0.660268 0.731254 0.336267 0.299411
-0.959658 -0.581873 0.532246 0.086367 0.677602 0.730308 0.364559 0.240248
-2.312967 3.296886 -0.101499 -0.119144 0.721885 -0.681661 0.455897 0.466186
-2.312967 3.296886 0.071368 -0.235237 0.743431 0.626026 0.449929 0.473390
-2.312967 2.292252 0.071368 -0.057192 -0.736351 0.674154 0.230345 0.948610
-2.312967 2.296886 -0.101499 0.062075 -0.679220 -0.731284 0.498292 0.358070
-2.877082 3.002719 -0.101499 -0.410779 0.605518 -0.681570 0.422261 0.447980
-2.877082 3.002719 0.071368 -0.411878 0.604205 0.682089 0.270237 0.812559
-2.493155 2.292252 0.071368 0.159612 -0.631092 0.759056 0.209472 0.918543
-2.493155 2.296886 -0.101499 0.156011 -0.612995 -0.774499 0.464103 0.345118
-3.242673 2.686109 -0.102354 -0.674825 0.373211 -0.636616 0.390989 0.440917
-3.242673 2.686109 0.070514 -0.676351 0.370037 0.636830 0.241740 0.792073
-2.610778 2.228482 0.070514 0.432386 -0.493698 0.754479 0.186555 0.904592
-2.610778 2.233116 -0.102354 0.424970 -0.480361 -0.767205 0.435838 0.332718
-3.350873 1.964064 -0.104367 -0.736259 0.099857 -0.669240 0.323344 0.439506
-3.350873 1.964064 0.068501 -0.706381 0.005158 0.707785 0.327533 0.456219
-2.718978 2.078318 0.068501 0.580554 -0.227454 0.781762 0.167367 0.866374
-2.718978 2.082952 -0.104367 0.603351 -0.155248 -0.782189 0.393034 0.331579
-3.350873 0.498508 -0.278292 -0.697562 0.037294 -0.715537 0.153234 0.516581
-3.350873 0.498508 -0.105425 -0.717338 -0.036439 0.695730 0.118051 0.589830
-2.718978 0.612763 -0.105425 0.724723 -0.045259 0.687521 0.026896 0.642170
-2.718978 0.617397 -0.278292 0.689566 0.047761 -0.722617 0.099111 0.437543
-3.350873 0.045653 -0.278292 -0.725516 -0.061830 -0.685385 0.141173 0.557263
-3.350873 0.045653 -0.105425 -0.721427 -0.070498 0.688864 0.097856 0.538056
-2.718978 0.159908 -0.105425 0.680654 0.058473 0.730247 0.000091 0.566381
-2.718978 0.164542 -0.278292 0.684347 0.066286 -0.726096 0.048032 0.516417
-3.202666 -0.757725 -0.289061 -0.698294 -0.236305 -0.675619 0.141904 0.644504
-3.202666 -0.757725 -0.116193 -0.696280 -0.249062 0.673147 0.160038 0.639991
-2.570771 -0.643471 -0.116193 0.695273 0.121006 0.708457 0.000091 0.404842
-2.570771 -0.638836 -0.289061 0.695425 0.135472 -0.705679 0.039572 0.683181
-2.966746 -1.202722 -0.291495 -0.605152 -0.412671 -0.680776 0.163688 0.699557
-2.966746 -1.202722 -0.118627 -0.597949 -0.420972 0.682028 0.108588 0.424634
-2.537281 -0.825007 -0.118627 0.569750 0.271950 0.775475 0.023346 0.373817
-2.537281 -0.820373 -0.291495 0.571703 0.284097 -0.769677 0.056773 0.723902
-2.530965 -1.695187 -0.298096 -0.515610 -0.499619 -0.696036 0.212527 0.767676
-2.530965 -1.695187 -0.125228 -0.509110 -0.507950 0.694815 0.227341 0.751565
-2.101500 -1.317473 -0.125228 0.528642 0.460433 0.713065 0.139833 0.301706
-2.101500 -1.312839 -0.298096 0.530473 0.476577 -0.701041 0.143151 0.853525
-2.175117 -2.020954 -0.299893 -0.337474 -0.649525 -0.681326 0.259839 0.804616
-2.175117 -2.020954 -0.127025 -0.420820 -0.640858 0.641987 0.272649 0.787016
-1.982858 -1.451548 -0.127025 0.316355 0.557268 0.767663 0.154384 0.915894
-1.982858 -1.446914 -0.299893 0.388470 0.506272 -0.769890 0.177943 0.878535
-1.654342 -2.196081 -0.232500 -0.112247 -0.740989 -0.662038 0.323341 0.834494
-1.654342 -2.196081 -0.059632 -0.185492 -0.693442 0.696188 0.250857 0.363518
-1.462083 -1.626674 -0.059632 0.176672 0.662648 0.727744 0.265337 0.303543
-1.462083 -1.622040 -0.232500 0.271798 0.679373 -0.681539 0.294096 0.947305
-1.069271 -2.244223 -0.233145 0.124943 -0.743400 -0.657033 0.391286 0.855263
-1.069271 -2.244223 -0.060277 0.122684 -0.745628 0.654958 0.397769 0.835695
-1.318921 -1.674817 -0.060277 -0.026582 0.593005 0.804712 0.283073 0.309400
-1.318921 -1.670182 -0.233145 -0.026002 0.611744 -0.790613 0.328600 0.953546
-0.540848 -2.013481 -0.230052 0.285348 -0.647023 -0.707053 0.456615 0.870573
-0.540848 -2.013481 -0.057184 0.280557 -0.649007 0.707144 0.344011 0.379612
-0.790499 -1.444074 -0.057184 -0.184149 0.706870 0.682913 0.349538 0.316270
-0.790499 -1.439440 -0.230052 -0.183264 0.726249 -0.662526 0.444473 0.967371
-0.496620 -1.994168 -0.229793 0.256233 -0.609027 -0.750572 0.461951 0.873901
-0.496620 -1.994168 -0.056926 0.114597 -0.688711 0.715903 0.348627 0.380059
-0.576935 -1.424762 -0.056926 -0.156835 0.702048 0.694601 0.369559 0.326791
-0.576935 -1.420127 -0.229793 -0.001099 0.692709 -0.721183 0.482363 0.958177
-0.210226 -1.953936 -0.166953 0.048555 -0.760826 -0.647114 0.498388 0.865866
-0.210226 -1.953936 0.005915 -0.011597 -0.683889 0.729453 0.489139 0.847239
-0.290541 -1.384529 0.005915 -0.209082 0.641682 0.737907 0.396002 0.339545
-0.290541 -1.379895 -0.166953 -0.178716 0.747948 -0.639210 0.533206 0.945914
-0.499911 -1.254859 -0.099282 -0.131901 -0.664632 -0.735405 0.726302 0.895207
-0.551764 -0.568824 -0.099282 -0.215552 0.641102 -0.736534 0.721130 0.864355
-0.499911 -1.263838 0.235631 0.285592 -0.778619 0.558733 0.378366 0.321351
-0.551764 -0.568824 0.235631 0.217231 0.790643 0.572405 0.406658 0.262187
-0.333525 -1.220898 -0.088624 -0.026307 -0.732322 -0.680441 0.712543 0.900363
-0.382130 -0.577833 -0.088624 -0.122379 0.734367 -0.667592 0.717547 0.864158
-0.333525 -1.229315 0.225311 0.200995 -0.652821 0.730338 0.393591 0.326332
-0.382130 -0.577833 0.225311 0.108371 0.668661 0.735588 0.420111 0.270874
0.383859 -1.218567 0.015463 0.056825 -0.054689 0.996857 0.455213 0.360249
0.383859 -1.218567 -0.365623 -0.160649 0.001434 -0.986999 0.634379 0.886645
0.383859 -0.489585 0.015463 0.182958 0.762047 0.621082 0.489160 0.300643
0.383859 -0.489585 -0.365623 -0.015931 0.706442 -0.707572 0.687893 0.850167
0.383859 -1.910681 0.015463 0.162633 -0.706656 0.688559 0.422259 0.416511
0.383859 -1.910681 -0.365623 0.050813 -0.690207 -0.721793 0.559931 0.847191
0.967874 -0.688706 -0.037934 0.089694 0.691671 0.716605 0.527840 0.344234
0.967874 -0.688706 -0.312226 0.212165 0.637989 -0.740226 0.675531 0.821891
0.967874 -1.711560 -0.037934 0.089694 -0.691671 0.716605 0.579903 0.805750
0.967874 -1.711560 -0.312226 0.212165 -0.637989 -0.740226 0.595434 0.817541
2.131261 -0.688706 0.170821 -0.053194 0.704184 0.707999 0.628778 0.402034
2.131261 -0.688706 -0.103471 0.156163 0.711722 -0.684835 0.672208 0.767719
2.131261 -1.711560 0.170821 -0.140904 -0.668325 0.730369 0.558962 0.482925
2.131261 -1.711560 -0.103471 0.089480 -0.691336 -0.716941 0.627219 0.765843
4.900434 0.942576 0.000000 0.730399 0.119785 -0.672414 0.690228 0.737331
4.446902 2.287881 0.000000 0.567309 0.537767 -0.623646 0.672898 0.729983
4.900434 0.942576 0.172868 0.730399 0.119785 0.672414 0.680850 0.734428
4.446902 2.287881 0.172868 0.567309 0.537767 0.623646 0.657624 0.581338
2.800908 -0.530379 0.172868 -0.707083 0.000000 0.707083 0.704954 0.448734
2.800908 -0.530379 0.000000 -0.707083 0.000000 -0.707083 0.685918 0.733236
4.900434 -0.530379 0.172868 0.731864 -0.183508 0.656209 0.671713 0.734857
4.900434 -0.530379 0.000000 0.731864 -0.183508 -0.656209 0.673500 0.735308
2.800908 -0.648315 0.172868 -0.569659 0.226295 0.790063 0.693806 0.451107
2.800908 -0.648315 0.000000 -0.599597 0.170446 -0.781915 0.681513 0.736975
4.245168 -1.754718 0.172868 0.440748 -0.660085 0.608264 0.659152 0.736476
4.245168 -1.754718 0.000000 0.421064 -0.664235 -0.617603 0.660206 0.736566
2.730341 -0.740430 0.172868 -0.215888 0.543504 0.811151 0.681839 0.449724
2.730341 -0.740430 0.000000 -0.174718 0.508927 -0.842860 0.677435 0.740528
3.013082 -1.846833 0.260468 -0.020478 -0.691153 0.722404 0.605598 0.525396
3.013082 -1.846833 0.087600 -0.004242 -0.778283 -0.627857 0.645683 0.746507
5 0 17 2 3 1 
4 3 5 4 1 
4 5 7 6 4 
5 8 9 11 10 16 
4 11 9 12 13 
4 13 12 14 15 
4 7 5 13 15 
4 14 6 153 152 
4 1 4 12 9 
4 3 2 10 11 
4 0 1 9 8 
4 4 6 14 12 
4 5 3 11 13 
4 2 17 21 18 
4 18 21 69 66 
4 10 2 18 19 
4 17 16 20 21 
4 16 10 19 20 
4 17 0 22 25 
4 24 25 29 28 
4 0 8 23 22 
4 8 16 24 23 
4 16 17 25 24 
4 26 27 31 30 
4 23 24 28 27 
4 22 23 27 26 
4 25 22 26 29 
4 30 31 37 35 
4 29 26 30 33 
4 28 29 33 32 
4 27 28 32 31 
4 36 34 38 40 
4 33 30 35 34 
4 32 33 34 36 
4 31 32 36 37 
4 39 41 45 43 
4 37 36 40 41 
4 35 37 41 39 
4 34 35 39 38 
4 42 43 47 46 
4 38 39 43 42 
4 40 38 42 44 
4 41 40 44 45 
4 48 46 50 52 
4 44 42 46 48 
4 45 44 48 49 
4 43 45 49 47 
4 51 53 57 55 
4 49 48 52 53 
4 47 49 53 51 
4 46 47 51 50 
4 56 54 58 60 
4 50 51 55 54 
4 52 50 54 56 
4 53 52 56 57 
4 61 60 64 65 
4 57 56 60 61 
4 55 57 61 59 
4 54 55 59 58 
4 63 65 129 127 
4 59 61 65 63 
4 58 59 63 62 
4 60 58 62 64 
4 69 68 72 73 
4 19 18 66 67 
4 21 20 68 69 
4 20 19 67 68 
4 70 73 77 74 
4 68 67 71 72 
4 66 69 73 70 
4 67 66 70 71 
4 74 77 81 78 
4 71 70 74 75 
4 73 72 76 77 
4 72 71 75 76 
4 81 80 84 85 
4 75 74 78 79 
4 77 76 80 81 
4 76 75 79 80 
4 82 85 89 86 
4 80 79 83 84 
4 78 81 85 82 
4 79 78 82 83 
4 87 86 90 91 
4 83 82 86 87 
4 85 84 88 89 
4 84 83 87 88 
4 93 92 96 97 
4 89 88 92 93 
4 88 87 91 92 
4 86 89 93 90 
4 94 97 101 98 
4 92 91 95 96 
4 90 93 97 94 
4 91 90 94 95 
4 101 100 104 105 
4 95 94 98 99 
4 97 96 100 101 
4 96 95 99 100 
4 104 103 107 108 
4 100 99 103 104 
4 98 101 105 102 
4 99 98 102 103 
4 106 109 113 110 
4 102 105 109 106 
4 103 102 106 107 
4 105 104 108 109 
4 113 112 116 117 
4 107 106 110 111 
4 109 108 112 113 
4 108 107 111 112 
4 114 117 121 118 
4 112 111 115 116 
4 110 113 117 114 
4 111 110 114 115 
4 118 121 125 122 
4 115 114 118 119 
4 117 116 120 121 
4 116 115 119 120 
4 131 137 135 130 
4 119 118 122 123 
4 121 120 124 125 
4 120 119 123 124 
4 127 129 133 131 
4 62 63 127 126 
4 64 62 126 128 
4 65 64 128 129 
4 134 132 130 135 
4 126 127 131 130 
4 128 126 130 132 
4 129 128 132 133 
4 137 136 140 141 
4 124 134 135 125 
4 133 136 137 131 
4 132 134 136 133 
4 123 138 134 124 
4 125 135 139 122 
4 122 139 138 123 
4 138 139 143 142 
5 135 137 141 143 139 
5 134 138 142 140 136 
4 143 141 145 147 
4 141 140 144 145 
4 140 142 146 144 
4 142 143 147 146 
4 148 149 151 150 
4 6 7 149 148 
4 7 15 151 149 
4 15 14 150 151 
4 153 155 159 157 
4 150 14 152 154 
4 148 150 154 155 
4 6 148 155 153 
4 156 157 161 160 
4 152 153 157 156 
4 154 152 156 158 
4 155 154 158 159 
4 145 144 160 161 
4 158 156 160 162 
4 159 158 162 163 
4 157 159 163 161 
4 147 145 161 163 
4 147 163 162 146 
4 144 146 162 160 
